<svg width="28" height="28" viewBox="0 0 28 28" fill="none" xmlns="http://www.w3.org/2000/svg">
<path d="M6.49996 24C6.27895 24 6.06698 23.9122 5.9107 23.7559C5.75442 23.5996 5.66663 23.3877 5.66663 23.1666V4.83331C5.66665 4.6885 5.70441 4.5462 5.77618 4.42043C5.84795 4.29466 5.95126 4.18976 6.07592 4.11607C6.20058 4.04239 6.34229 4.00246 6.48708 4.00022C6.63187 3.99798 6.77475 4.03352 6.90163 4.10331L23.5683 13.27C23.6989 13.3419 23.8079 13.4476 23.8838 13.576C23.9597 13.7044 23.9997 13.8508 23.9997 14C23.9997 14.1491 23.9597 14.2955 23.8838 14.424C23.8079 14.5524 23.6989 14.658 23.5683 14.73L6.90163 23.8966C6.77858 23.9644 6.64042 23.9999 6.49996 24Z" fill="#FFC93E"/>
</svg>
