<svg width="123" height="120" viewBox="0 0 123 120" fill="none" xmlns="http://www.w3.org/2000/svg">
<path d="M42.9144 100.416C43.6554 100.763 44.2219 101.257 44.6139 101.897C45.0041 102.541 45.1986 103.281 45.1972 104.118C45.1941 104.959 44.972 105.85 44.5311 106.792C44.0938 107.725 43.5541 108.461 42.9122 108.998C42.2702 109.535 41.576 109.857 40.8295 109.964C40.0831 110.071 39.3355 109.949 38.5868 109.598C38.0079 109.327 37.5958 109.016 37.3504 108.666C37.0993 108.318 36.9419 107.981 36.8783 107.655C36.8089 107.33 36.7602 107.068 36.7322 106.866L36.6164 106.812L34.5671 111.188L33.201 110.549L38.7523 98.6932L40.0722 99.3112L39.4325 100.677L39.5946 100.753C39.7708 100.638 40.0094 100.501 40.3103 100.34C40.6094 100.184 40.9758 100.09 41.4096 100.057C41.8417 100.029 42.3433 100.149 42.9144 100.416ZM42.1545 101.557C41.6065 101.3 41.0765 101.226 40.5646 101.335C40.0509 101.447 39.5763 101.712 39.141 102.129C38.7038 102.55 38.328 103.096 38.0136 103.768C37.7028 104.432 37.5273 105.058 37.4871 105.646C37.4452 106.238 37.5482 106.761 37.7963 107.216C38.0426 107.675 38.4436 108.035 38.9994 108.295C39.5782 108.566 40.1302 108.643 40.6553 108.527C41.1747 108.412 41.6492 108.148 42.0789 107.732C42.503 107.319 42.8613 106.8 43.1541 106.175C43.4504 105.542 43.6232 104.922 43.6724 104.314C43.7159 103.709 43.618 103.164 43.3787 102.681C43.1338 102.199 42.7257 101.824 42.1545 101.557Z" fill="black"/>
<path d="M33.0703 93.962C33.5364 94.3741 33.8819 94.8358 34.1066 95.3473C34.3285 95.8619 34.403 96.3857 34.3301 96.9185C34.2545 97.4545 34.005 97.9619 33.5816 98.4408C33.2091 98.8623 32.8241 99.1305 32.4266 99.2456C32.0263 99.3638 31.621 99.3752 31.2106 99.2797C30.8001 99.1842 30.3949 99.025 29.9947 98.8021C29.5885 98.5796 29.1949 98.3397 28.8137 98.0824C28.316 97.7447 27.9155 97.4675 27.6123 97.2507C27.3031 97.0342 27.0522 96.9063 26.8596 96.8668C26.6638 96.8245 26.4854 96.8944 26.3246 97.0764L26.2907 97.1147C25.873 97.5872 25.6777 98.0687 25.7049 98.5591C25.7289 99.0467 26.0011 99.5205 26.5215 99.9806C27.0611 100.458 27.5886 100.713 28.1039 100.748C28.6193 100.783 29.0578 100.721 29.4193 100.563L30.1534 101.894C29.5667 102.172 29.0037 102.294 28.4643 102.261C27.9188 102.228 27.4124 102.093 26.945 101.856C26.4715 101.62 26.0496 101.338 25.6793 101.011C25.443 100.802 25.197 100.533 24.9413 100.205C24.6796 99.8766 24.4813 99.4994 24.3463 99.073C24.2082 98.6437 24.1972 98.1704 24.3132 97.6531C24.4293 97.1357 24.7456 96.5849 25.2621 96.0007L29.5463 91.154L30.6766 92.1532L29.796 93.1493L29.8535 93.2001C30.0712 93.1082 30.3499 93.0503 30.6896 93.0263C31.0293 93.0024 31.404 93.0578 31.8138 93.1926C32.2236 93.3273 32.6425 93.5838 33.0703 93.962ZM32.0004 94.8249C31.5534 94.4298 31.099 94.1845 30.6373 94.0892C30.1724 93.991 29.7389 94.0117 29.3369 94.1512C28.9318 94.2878 28.5937 94.5094 28.3228 94.8159L27.4083 95.8504C27.507 95.8352 27.659 95.8757 27.8641 95.9717C28.0633 96.0682 28.2837 96.1919 28.5255 96.3431C28.7612 96.4946 28.9894 96.6451 29.2099 96.7945C29.4244 96.9444 29.5994 97.0649 29.7348 97.1562C30.0624 97.3775 30.3921 97.558 30.7237 97.6976C31.0493 97.8375 31.3651 97.892 31.6711 97.8611C31.9712 97.8306 32.2482 97.6716 32.5022 97.3843C32.8493 96.9915 32.9665 96.5662 32.8538 96.1082C32.735 95.6506 32.4506 95.2229 32.0004 94.8249Z" fill="black"/>
<path d="M15.1064 93.7324L25.7487 86.109L26.6271 87.3354L15.9849 94.9587L15.1064 93.7324Z" fill="black"/>
<path d="M22.7356 81.0066L13.8875 85.262L13.2337 83.9026L22.0817 79.6471L22.7356 81.0066ZM12.0804 85.28C12.2078 85.545 12.2275 85.8169 12.1393 86.0957C12.0493 86.3707 11.8776 86.5692 11.6241 86.6911C11.3707 86.813 11.1085 86.8232 10.8375 86.7219C10.5646 86.6166 10.3645 86.4316 10.237 86.1666C10.1096 85.9016 10.0909 85.6316 10.1809 85.3566C10.269 85.0778 10.4398 84.8774 10.6933 84.7555C10.9467 84.6336 11.2099 84.6253 11.4827 84.7305C11.7537 84.8319 11.9529 85.015 12.0804 85.28Z" fill="black"/>
<path d="M19.2786 70.4513C19.4746 71.3157 19.4409 72.1208 19.1774 72.8665C18.913 73.6081 18.4524 74.2457 17.7956 74.7791C17.1378 75.3084 16.3144 75.6852 15.3253 75.9095C14.3279 76.1357 13.4162 76.1523 12.5904 75.9594C11.7635 75.7624 11.0709 75.3864 10.5125 74.8313C9.95307 74.2722 9.57538 73.5604 9.37937 72.6959C9.18336 71.8315 9.21757 71.0285 9.48199 70.2869C9.74547 69.5411 10.2082 68.9031 10.8701 68.3729C11.5311 67.8385 12.3602 67.4582 13.3577 67.2321C14.3467 67.0078 15.2526 66.9946 16.0753 67.1926C16.897 67.3864 17.5876 67.7629 18.147 68.3221C18.7054 68.8771 19.0826 69.5868 19.2786 70.4513ZM17.9571 70.7509C17.8082 70.0943 17.5174 69.5922 17.0846 69.2446C16.6519 68.8971 16.1381 68.6837 15.5434 68.6044C14.9486 68.5252 14.3312 68.5581 13.6912 68.7032C13.0512 68.8483 12.478 69.0854 11.9714 69.4144C11.4649 69.7433 11.0892 70.1584 10.8446 70.6596C10.5999 71.1607 10.552 71.7396 10.7009 72.3963C10.8498 73.0529 11.1427 73.5545 11.5796 73.9011C12.0165 74.2478 12.5344 74.4602 13.1333 74.5385C13.7322 74.6168 14.3517 74.5834 14.9917 74.4383C15.6317 74.2932 16.2029 74.0566 16.7053 73.7286C17.2077 73.4006 17.5791 72.9864 17.8197 72.4862C18.0602 71.986 18.106 71.4075 17.9571 70.7509Z" fill="black"/>
<path d="M13.7488 50.6624L11.032 49.9281L11.965 52.585L10.7803 52.9405L10.0754 50.2052L8.23964 52.352L7.33195 51.5118L9.33816 49.5358L6.57513 49.0007L6.85209 47.8051L9.56896 48.5394L8.63595 45.8825L9.82059 45.527L10.5255 48.2623L12.3613 46.1155L13.269 46.9557L11.2627 48.9318L14.0258 49.4668L13.7488 50.6624Z" fill="#FFC93E"/>
<path d="M28.2939 34.1109L25.7051 37.2122L15.6554 28.8232L18.3588 25.5845C19.1726 24.6097 20.0701 23.9434 21.0514 23.5857C22.0295 23.2254 23.0474 23.173 24.1051 23.4287C25.1596 23.6816 26.2069 24.2423 27.2472 25.1107C28.2941 25.9846 29.0397 26.9234 29.4841 27.9271C29.9252 28.9281 30.0509 29.9545 29.8613 31.0063C29.6683 32.0554 29.1459 33.0902 28.2939 34.1109ZM25.6414 35.0941L27.1488 33.2883C27.8424 32.4573 28.2569 31.6349 28.3924 30.8209C28.5278 30.007 28.4114 29.2188 28.0432 28.4562C27.675 27.6937 27.082 26.9711 26.2642 26.2884C25.4529 25.6112 24.6438 25.1606 23.837 24.9368C23.027 24.7103 22.2451 24.7293 21.4914 24.9938C20.7344 25.2556 20.0282 25.7791 19.3728 26.5642L17.7508 28.5074L25.6414 35.0941Z" fill="black"/>
<path d="M35.1664 27.5761L29.3615 19.6577L30.5782 18.7658L36.383 26.6842L35.1664 27.5761ZM29.0127 17.8845C28.7755 18.0583 28.5118 18.1275 28.2216 18.0919C27.9348 18.0538 27.7082 17.9214 27.5419 17.6946C27.3757 17.4677 27.3175 17.2118 27.3675 16.9269C27.4209 16.6394 27.5662 16.4087 27.8033 16.2348C28.0405 16.061 28.3025 15.9931 28.5893 16.0312C28.8795 16.0667 29.1078 16.1979 29.2741 16.4248C29.4404 16.6516 29.4968 16.9088 29.4434 17.1963C29.3934 17.4812 29.2498 17.7107 29.0127 17.8845Z" fill="black"/>
<path d="M46.3445 25.6341C45.6754 25.9228 45.0631 26.0848 44.5075 26.1203C43.9537 26.1597 43.4564 26.1097 43.0157 25.9703C42.5806 25.8331 42.2016 25.6485 41.8788 25.4165L42.648 24.1658C42.8441 24.2761 43.0836 24.3955 43.3664 24.5241C43.651 24.6566 43.9933 24.7294 44.3935 24.7424C44.7992 24.7577 45.274 24.648 45.8178 24.4133C46.5456 24.0994 47.0703 23.6642 47.3918 23.1078C47.7133 22.5514 47.712 21.8976 47.3879 21.1463L46.598 19.3151L46.4806 19.3658C46.4497 19.574 46.3927 19.8399 46.3096 20.1635C46.2286 20.4816 46.0546 20.8096 45.7874 21.1476C45.5224 21.4801 45.0964 21.7729 44.5095 22.0261C43.7817 22.3401 43.054 22.4498 42.3264 22.3553C41.6027 22.2591 40.9308 21.9549 40.3107 21.4427C39.6945 20.9289 39.1839 20.2024 38.7787 19.2633C38.3804 18.3399 38.1959 17.4658 38.2252 16.6409C38.2529 15.8122 38.4753 15.0851 38.8923 14.4596C39.3077 13.8303 39.8949 13.3519 40.654 13.0244C41.2409 12.7712 41.7487 12.6681 42.1774 12.7152C42.6084 12.7567 42.969 12.8611 43.2592 13.0282C43.5517 13.1898 43.7826 13.3269 43.9518 13.4395L44.0927 13.3787L43.4749 11.9467L44.813 11.3694L48.8136 20.6427C49.1478 21.4174 49.2435 22.1233 49.1007 22.7604C48.9634 23.3998 48.6483 23.9603 48.1554 24.4422C47.6681 24.9262 47.0644 25.3235 46.3445 25.6341ZM44.1605 20.7008C44.7161 20.4611 45.1308 20.1314 45.4046 19.7116C45.6783 19.2919 45.812 18.8003 45.8056 18.2368C45.7992 17.6734 45.6525 17.0591 45.3656 16.3939C45.0854 15.7444 44.7402 15.2134 44.3302 14.8008C43.9202 14.3883 43.4627 14.1239 42.9577 14.0076C42.4527 13.8913 41.9185 13.9547 41.3551 14.1978C40.7682 14.451 40.3432 14.8106 40.0802 15.2768C39.8211 15.7413 39.7018 16.2662 39.7222 16.8514C39.7466 17.4349 39.8904 18.0319 40.1537 18.6423C40.4238 19.2684 40.7605 19.7798 41.1637 20.1767C41.5692 20.568 42.0247 20.817 42.5303 20.9238C43.038 21.025 43.5814 20.9506 44.1605 20.7008Z" fill="black"/>
<path d="M52.6488 19.6922L50.8719 10.0361L52.3555 9.7631L54.1324 19.4192L52.6488 19.6922ZM51.3302 8.28795C51.041 8.34116 50.7735 8.28856 50.5277 8.13014C50.2861 7.97095 50.1398 7.75306 50.0889 7.47645C50.038 7.19984 50.0971 6.94416 50.2663 6.70939C50.4396 6.47386 50.6708 6.32948 50.96 6.27627C51.2492 6.22306 51.5145 6.27604 51.7562 6.43523C52.0019 6.59365 52.1503 6.81116 52.2012 7.08777C52.2521 7.36437 52.1909 7.62044 52.0176 7.85598C51.8485 8.09075 51.6193 8.23473 51.3302 8.28795Z" fill="black"/>
<path d="M64.2974 9.06385L64.2863 10.3422L59.1984 10.2981L59.2095 9.01976L64.2974 9.06385ZM60.7128 6.68043L62.2212 6.6935L62.1401 16.0511C62.1364 16.4772 62.1955 16.7973 62.3172 17.0115C62.4432 17.2214 62.6039 17.3634 62.7993 17.4375C62.999 17.5075 63.2096 17.5434 63.4312 17.5453C63.5974 17.5467 63.7338 17.5394 63.8405 17.5233C63.9472 17.5029 64.0326 17.4866 64.0966 17.4744L64.3917 18.8321C64.2891 18.8695 64.146 18.9067 63.9624 18.9434C63.7788 18.9844 63.5464 19.0037 63.2652 19.0013C62.8391 18.9976 62.4223 18.9024 62.0148 18.7156C61.6115 18.5289 61.2773 18.2468 61.0121 17.8695C60.7512 17.4922 60.6232 17.0181 60.6281 16.4471L60.7128 6.68043Z" fill="black"/>
<path d="M71.4176 20.3493C70.815 20.1946 70.2973 19.9407 69.8644 19.5876C69.4325 19.2304 69.1278 18.798 68.9501 18.2904C68.7735 17.7787 68.7647 17.2133 68.9236 16.5942C69.0635 16.0493 69.2842 15.6352 69.5857 15.3519C69.8883 15.0644 70.2441 14.8698 70.653 14.768C71.0619 14.6662 71.4952 14.6234 71.9529 14.6398C72.4159 14.653 72.8756 14.6874 73.3321 14.743C73.929 14.8171 74.4118 14.8817 74.7804 14.9367C75.1542 14.9887 75.4359 14.9884 75.6253 14.9358C75.8189 14.8843 75.9459 14.741 76.0063 14.5057L76.0191 14.4562C76.1759 13.8453 76.1306 13.3277 75.8832 12.9034C75.6398 12.4802 75.1818 12.1822 74.509 12.0095C73.8115 11.8304 73.2254 11.8427 72.7507 12.0464C72.2761 12.2502 71.9137 12.5047 71.6637 12.8101L70.4041 11.9587C70.8001 11.4445 71.2458 11.0793 71.7412 10.8634C72.2418 10.6443 72.7541 10.5339 73.2781 10.532C73.8073 10.5271 74.3113 10.5861 74.7901 10.709C75.0955 10.7874 75.4368 10.9146 75.814 11.0907C76.1964 11.2636 76.5447 11.5092 76.8589 11.8275C77.1773 12.1468 77.4026 12.5632 77.5347 13.0767C77.6669 13.5901 77.636 14.2245 77.4421 14.9799L75.8335 21.2454L74.3724 20.8703L74.703 19.5825L74.6287 19.5635C74.4766 19.7444 74.2548 19.9228 73.9633 20.0988C73.6718 20.2747 73.3129 20.3959 72.8866 20.4625C72.4604 20.529 71.9707 20.4913 71.4176 20.3493ZM71.9775 19.094C72.5553 19.2424 73.0715 19.2539 73.526 19.1286C73.9847 19.0044 74.3612 18.7887 74.6557 18.4815C74.9542 18.1754 75.1544 17.8242 75.2561 17.428L75.5994 16.0907C75.5185 16.1491 75.3648 16.1822 75.1384 16.1901C74.9172 16.1949 74.6645 16.185 74.3804 16.1605C74.1016 16.1329 73.8299 16.1027 73.5655 16.0701C73.3063 16.0343 73.0957 16.0066 72.9335 15.987C72.5411 15.939 72.1655 15.9284 71.8066 15.9551C71.453 15.9787 71.147 16.0739 70.8886 16.2407C70.6354 16.4045 70.4611 16.6721 70.3657 17.0436C70.2354 17.5513 70.3246 17.9833 70.6335 18.3398C70.9475 18.6932 71.3955 18.9446 71.9775 19.094Z" fill="black"/>
<path d="M87.5169 12.3768L81.5112 24.0088L80.1708 23.3168L86.1765 11.6847L87.5169 12.3768Z" fill="black"/>
<path d="M98.537 30.7053L100.762 28.9815L98.0798 28.1228L98.511 26.9635L101.118 28.0515L100.513 25.2923L101.731 25.0752L102.096 27.8674L104.19 25.9865L104.976 26.9287L102.752 28.6525L105.434 29.5112L105.002 30.6705L102.396 29.5825L103 32.3417L101.783 32.5588L101.417 29.7666L99.3235 31.6475L98.537 30.7053Z" fill="#FFC93E"/>
<path d="M102.442 51.1164C102.291 50.5128 102.268 49.9366 102.373 49.3878C102.481 48.838 102.716 48.3641 103.078 47.9662C103.444 47.5673 103.937 47.2903 104.557 47.1353C105.103 46.9988 105.572 46.9958 105.965 47.126C106.362 47.2552 106.702 47.4753 106.986 47.7864C107.27 48.0975 107.514 48.4582 107.718 48.8686C107.927 49.282 108.115 49.7026 108.284 50.1305C108.503 50.6907 108.676 51.146 108.803 51.4963C108.935 51.8498 109.07 52.0973 109.206 52.2389C109.344 52.3847 109.53 52.4281 109.766 52.3692L109.815 52.3568C110.427 52.2038 110.861 51.9175 111.116 51.4979C111.373 51.0825 111.416 50.5378 111.248 49.8639C111.073 49.1652 110.783 48.6557 110.378 48.3353C109.973 48.0149 109.577 47.8175 109.189 47.7431L109.338 46.23C109.979 46.3333 110.512 46.5514 110.938 46.8842C111.369 47.2201 111.71 47.6181 111.961 48.078C112.217 48.541 112.406 49.0123 112.525 49.4919C112.602 49.7978 112.653 50.1585 112.677 50.574C112.707 50.9926 112.657 51.4158 112.527 51.8437C112.398 52.2757 112.139 52.672 111.75 53.0327C111.362 53.3934 110.789 53.6683 110.032 53.8575L103.757 55.4262L103.391 53.9628L104.681 53.6403L104.662 53.5659C104.431 53.5184 104.168 53.4083 103.875 53.2357C103.581 53.0631 103.304 52.8052 103.042 52.4621C102.781 52.1189 102.581 51.6704 102.442 51.1164ZM103.813 51.011C103.957 51.5898 104.193 52.0492 104.52 52.3892C104.847 52.7334 105.216 52.9618 105.627 53.0745C106.038 53.1913 106.442 53.2001 106.839 53.1009L108.178 52.766C108.088 52.7226 107.986 52.6032 107.871 52.4079C107.762 52.2157 107.65 51.9888 107.537 51.7273C107.428 51.4689 107.325 51.2157 107.228 50.9677C107.136 50.7227 107.06 50.5243 107 50.3723C106.855 50.0044 106.686 49.669 106.492 49.3662C106.303 49.0665 106.073 48.8427 105.803 48.6949C105.539 48.5502 105.22 48.5243 104.848 48.6174C104.34 48.7445 104.002 49.0287 103.836 49.47C103.675 49.9144 103.667 50.4281 103.813 51.011Z" fill="black"/>
<path d="M100.091 63.7946C100.115 63.0663 100.229 62.4432 100.433 61.9254C100.633 61.4074 100.89 60.9787 101.204 60.6393C101.513 60.3039 101.842 60.0395 102.189 59.8461L102.993 61.0745C102.81 61.205 102.6 61.3709 102.363 61.5721C102.122 61.7732 101.911 62.0521 101.729 62.4086C101.542 62.7692 101.439 63.2455 101.42 63.8376C101.395 64.6298 101.565 65.2897 101.932 65.8175C102.298 66.3453 102.891 66.6224 103.708 66.6488L105.702 66.7133L105.706 66.5855C105.53 66.469 105.314 66.3042 105.057 66.0913C104.803 65.8827 104.581 65.5855 104.388 65.1999C104.2 64.8186 104.117 64.3085 104.137 63.6696C104.163 62.8774 104.373 62.1722 104.768 61.554C105.164 60.94 105.725 60.4615 106.452 60.1183C107.179 59.7795 108.054 59.6266 109.076 59.6596C110.081 59.6922 110.951 59.8972 111.685 60.2748C112.423 60.6526 112.986 61.1633 113.375 61.8068C113.768 62.4506 113.951 63.1856 113.924 64.0118C113.903 64.6507 113.78 65.1541 113.555 65.522C113.334 65.8943 113.086 66.1762 112.812 66.3677C112.541 66.5636 112.319 66.7142 112.145 66.8194L112.14 66.9727L113.699 67.0232L113.651 68.4798L103.557 68.1532C102.714 68.126 102.034 67.9121 101.519 67.5117C100.999 67.1154 100.625 66.5917 100.399 65.9406C100.169 65.2936 100.066 64.5783 100.091 63.7946ZM105.485 63.9179C105.465 64.5227 105.587 65.0383 105.851 65.4646C106.114 65.891 106.502 66.2212 107.015 66.4552C107.527 66.6892 108.146 66.8179 108.87 66.8414C109.577 66.8642 110.204 66.7779 110.752 66.5825C111.3 66.387 111.734 66.0856 112.054 65.6781C112.374 65.2706 112.544 64.7602 112.564 64.1469C112.584 63.508 112.44 62.9704 112.13 62.534C111.82 62.1019 111.396 61.7705 110.857 61.5399C110.319 61.3136 109.718 61.1897 109.053 61.1682C108.372 61.1461 107.766 61.2331 107.235 61.4291C106.708 61.6295 106.289 61.9358 105.977 62.3478C105.669 62.7642 105.505 63.2875 105.485 63.9179Z" fill="black"/>
<path d="M101.509 75.6578C101.797 74.7568 102.244 74.0431 102.851 73.5169C103.461 72.9961 104.181 72.674 105.013 72.5508C105.847 72.4328 106.743 72.5271 107.701 72.8336C108.658 73.14 109.447 73.5846 110.066 74.1674C110.687 74.7555 111.103 75.4297 111.311 76.19C111.523 76.9556 111.493 77.7605 111.223 78.6047C111.067 79.0917 110.832 79.5467 110.518 79.9697C110.204 80.3926 109.802 80.7404 109.312 81.0132C108.826 81.2873 108.248 81.4445 107.577 81.485C106.906 81.5255 106.135 81.4061 105.262 81.1269L104.653 80.9322L106.959 73.7239L108.201 74.1212L106.363 79.8684C106.89 80.0372 107.395 80.0823 107.876 80.0037C108.357 79.9291 108.778 79.7374 109.141 79.4284C109.502 79.1235 109.766 78.7113 109.933 78.1918C110.116 77.6195 110.132 77.0789 109.982 76.5699C109.834 76.0664 109.571 75.6309 109.192 75.2635C108.812 74.8962 108.365 74.63 107.85 74.4651L107.022 74.2002C106.316 73.9743 105.678 73.9045 105.109 73.9909C104.543 74.0827 104.062 74.3068 103.666 74.6634C103.274 75.0212 102.985 75.4903 102.799 76.0707C102.679 76.4482 102.622 76.806 102.63 77.1441C102.641 77.4877 102.719 77.8055 102.862 78.0975C103.01 78.3909 103.227 78.6503 103.512 78.876L102.679 80.1394C102.255 79.8427 101.919 79.4647 101.672 79.0054C101.43 78.5475 101.29 78.033 101.254 77.462C101.221 76.8924 101.306 76.2909 101.509 75.6578Z" fill="black"/>
<path d="M102.696 87.4005L97.7786 84.1295L98.614 82.8735L106.789 88.3109L105.982 89.5244L104.705 88.6748L104.634 88.7812C104.921 89.249 105.061 89.7618 105.054 90.3196C105.05 90.8798 104.842 91.4686 104.432 92.086C104.063 92.6395 103.628 93.0483 103.125 93.3124C102.625 93.5789 102.07 93.6752 101.458 93.6014C100.851 93.53 100.199 93.263 99.5039 92.8004L94.3094 89.3454L95.1448 88.0893L100.254 91.4877C100.896 91.9149 101.508 92.0809 102.088 91.9857C102.672 91.8929 103.157 91.5555 103.544 90.9736C103.811 90.5727 103.962 90.1565 103.998 89.7251C104.032 89.2972 103.942 88.8818 103.729 88.479C103.516 88.0762 103.172 87.7167 102.696 87.4005Z" fill="black"/>
<path d="M88.2382 94.7693C88.9383 94.1717 89.6823 93.8224 90.4701 93.7214C91.2579 93.6204 92.0355 93.7438 92.803 94.0916C93.5705 94.4394 94.2724 94.986 94.9087 95.7315C95.5561 96.4899 95.988 97.2782 96.2045 98.0963C96.4205 98.9204 96.417 99.7106 96.194 100.467C95.9706 101.229 95.5218 101.898 94.8476 102.473C94.3225 102.921 93.7663 103.228 93.179 103.393C92.5916 103.558 92.014 103.581 91.4462 103.46C90.8784 103.34 90.3629 103.074 89.8997 102.663L91.0471 101.683C91.4251 101.949 91.8769 102.084 92.4024 102.09C92.9274 102.101 93.4428 101.891 93.9484 101.459C94.3957 101.077 94.6883 100.626 94.8262 100.105C94.9636 99.5897 94.9464 99.0412 94.7748 98.4594C94.6026 97.8836 94.2759 97.3137 93.7945 96.7498C93.302 96.1728 92.7825 95.7479 92.2358 95.475C91.6859 95.2049 91.143 95.094 90.6072 95.1423C90.0681 95.1934 89.5717 95.4126 89.118 95.8C88.8198 96.0545 88.5934 96.3373 88.4388 96.6486C88.2843 96.9598 88.2057 97.2845 88.2032 97.6229C88.2006 97.9612 88.2799 98.2969 88.441 98.6301L87.2936 99.6094C86.9822 99.1133 86.8037 98.5793 86.7582 98.0075C86.7122 97.4416 86.8098 96.8765 87.0508 96.3122C87.2914 95.7539 87.6872 95.2396 88.2382 94.7693Z" fill="black"/>
<path d="M79.4643 96.5188C79.6968 96.4124 79.9129 96.3369 80.1128 96.2923C80.3109 96.2438 80.4527 96.221 80.5385 96.224L80.7431 97.5925C80.3708 97.6598 80.0622 97.7636 79.8171 97.9039C79.572 98.0442 79.3976 98.2623 79.294 98.5581C79.1848 98.8518 79.1506 99.2634 79.1915 99.7931L79.255 100.608L86.6639 108.07L85.1759 108.751L79.4553 102.765L79.3623 102.808L80.1543 111.05L78.6664 111.731L77.7736 99.7672C77.7331 99.228 77.7696 98.7497 77.8831 98.3322C77.9948 97.9108 78.1836 97.5502 78.4494 97.2505C78.7114 96.9525 79.0497 96.7086 79.4643 96.5188Z" fill="black"/>
</svg>
